<?xml version="1.0" encoding="UTF-8"?>
<svg id="Camada_1" xmlns="http://www.w3.org/2000/svg" version="1.1" viewBox="0 0 743.9 150">
  <polygon points="690.5 17.9 657.7 106.2 651.9 121.8 646.1 106.2 613.3 17.9 581.2 17.9 581.2 132.1 599.9 132.1 599.9 35.3 635.9 132.1 667.9 132.1 703.9 35.3 703.9 132.1 722.6 132.1 722.6 17.9 690.5 17.9"/>
  <path d="M473,17.9l-45.4,114.2h20l19.6-49.3,6.3,15.9h43.3l13.3,33.4h20l-45.4-114.2h-31.6ZM467.1,82.7l21.6-54.4,21.6,54.4h-43.2Z"/>
  <polygon points="364.2 17.9 325.6 121.8 287 17.9 254.9 17.9 254.9 132.1 273.7 132.1 273.7 35.3 309.7 132.1 341.6 132.1 377.6 35.3 377.6 132.1 396.3 132.1 396.3 17.9 364.2 17.9"/>
  <path d="M92,61.9L46.9,18h-25.7v114.1h25.7l31.6-30.9v-26.2l6.9,6.7h0s51.6,50.3,51.6,50.3h25.7V18h-25.7l-45.1,43.9ZM40,112.6V37.4l38.5,37.6-38.5,37.6ZM144,112.6l-38.5-37.6,38.5-37.6v75.2Z"/>
</svg>
